<svg xmlns="http://www.w3.org/2000/svg" viewBox="0 0 100 20.63"><defs><style>.cls-1{fill:#fff;}</style></defs><g id="Capa_2" data-name="Capa 2"><g id="Capa_1-2" data-name="Capa 1"><rect class="cls-1" x="26.78" y="15.81" width="0.5" height="2.83"/><polygon class="cls-1" points="27.76 18.64 27.76 15.81 28.24 15.81 29.25 17.7 29.25 15.81 29.7 15.81 29.7 18.64 29.21 18.64 28.22 16.8 28.22 18.64 27.76 18.64"/><path class="cls-1" d="M31.37,17.6v-.47h1.07v1.12a1.23,1.23,0,0,1-.45.31,1.62,1.62,0,0,1-.6.13,1.15,1.15,0,0,1-.67-.19,1.08,1.08,0,0,1-.43-.53,1.86,1.86,0,0,1-.15-.75,2,2,0,0,1,.16-.79,1.15,1.15,0,0,1,.48-.52,1,1,0,0,1,.58-.14,1.05,1.05,0,0,1,.72.22,1,1,0,0,1,.33.61l-.49.1a.62.62,0,0,0-.2-.33.52.52,0,0,0-.36-.12.61.61,0,0,0-.51.24,1.08,1.08,0,0,0-.19.7,1.23,1.23,0,0,0,.19.76.61.61,0,0,0,.51.25.7.7,0,0,0,.31-.07,1.14,1.14,0,0,0,.27-.17V17.6Z"/><polygon class="cls-1" points="32.9 18.64 32.9 15.81 34.72 15.81 34.72 16.29 33.4 16.29 33.4 16.92 34.63 16.92 34.63 17.39 33.4 17.39 33.4 18.16 34.77 18.16 34.77 18.64 32.9 18.64"/><polygon class="cls-1" points="35.19 18.64 35.19 15.81 35.67 15.81 36.68 17.7 36.68 15.81 37.14 15.81 37.14 18.64 36.64 18.64 35.65 16.8 35.65 18.64 35.19 18.64"/><rect class="cls-1" x="37.65" y="15.81" width="0.5" height="2.83"/><polygon class="cls-1" points="38.62 18.64 38.62 15.81 40.44 15.81 40.44 16.29 39.11 16.29 39.11 16.92 40.35 16.92 40.35 17.39 39.11 17.39 39.11 18.16 40.49 18.16 40.49 18.64 38.62 18.64"/><path class="cls-1" d="M40.91,18.64V15.81h1a1.57,1.57,0,0,1,.57.08.58.58,0,0,1,.29.27.94.94,0,0,1,.11.45.81.81,0,0,1-.17.52.69.69,0,0,1-.48.26,1,1,0,0,1,.26.24,2.69,2.69,0,0,1,.29.46l.3.55h-.6L42.17,18a3.52,3.52,0,0,0-.27-.41.31.31,0,0,0-.14-.12.84.84,0,0,0-.26,0h-.1v1.18ZM41.4,17h.37a1.94,1.94,0,0,0,.45,0,.41.41,0,0,0,.14-.12.48.48,0,0,0,0-.22.42.42,0,0,0-.07-.23.3.3,0,0,0-.19-.11H41.4Z"/><rect class="cls-1" x="43.37" y="15.81" width="0.5" height="2.83"/><path class="cls-1" d="M46.55,18.64H46L45.8,18h-1l-.21.64h-.52L45,15.81h.53Zm-.91-1.12-.34-1.05L45,17.52Z"/><polygon class="cls-1" points="47.65 18.64 47.65 15.81 49.33 15.81 49.33 16.29 48.14 16.29 48.14 16.96 49.17 16.96 49.17 17.44 48.14 17.44 48.14 18.64 47.65 18.64"/><polygon class="cls-1" points="49.74 18.64 49.74 15.81 51.56 15.81 51.56 16.29 50.23 16.29 50.23 16.92 51.47 16.92 51.47 17.39 50.23 17.39 50.23 18.16 51.6 18.16 51.6 18.64 49.74 18.64"/><path class="cls-1" d="M52,18.64V15.81h1a1.57,1.57,0,0,1,.57.08.58.58,0,0,1,.29.27.94.94,0,0,1,.11.45.81.81,0,0,1-.17.52.69.69,0,0,1-.48.26,1.51,1.51,0,0,1,.26.24,3.52,3.52,0,0,1,.29.46l.3.55h-.6L53.28,18a2.75,2.75,0,0,0-.26-.41.29.29,0,0,0-.15-.12.73.73,0,0,0-.25,0h-.1v1.18ZM52.52,17h.37a1.94,1.94,0,0,0,.45,0,.37.37,0,0,0,.13-.12.38.38,0,0,0,.06-.22.42.42,0,0,0-.07-.23.33.33,0,0,0-.19-.11h-.75Z"/><path class="cls-1" d="M54.51,18.64V15.81h1a1.57,1.57,0,0,1,.57.08.58.58,0,0,1,.29.27.93.93,0,0,1,.1.45.81.81,0,0,1-.16.52.71.71,0,0,1-.48.26,1.51,1.51,0,0,1,.26.24,3.75,3.75,0,0,1,.28.46l.3.55h-.59L55.76,18a4,4,0,0,0-.26-.41.4.4,0,0,0-.15-.12.73.73,0,0,0-.25,0H55v1.18ZM55,17h.37a1.84,1.84,0,0,0,.44,0,.33.33,0,0,0,.14-.12.38.38,0,0,0,0-.22.41.41,0,0,0-.06-.23.33.33,0,0,0-.19-.11H55Z"/><polygon class="cls-1" points="56.98 18.64 56.98 15.81 58.8 15.81 58.8 16.29 57.48 16.29 57.48 16.92 58.71 16.92 58.71 17.39 57.48 17.39 57.48 18.16 58.85 18.16 58.85 18.64 56.98 18.64"/><polygon class="cls-1" points="59.82 18.64 59.82 16.29 59.09 16.29 59.09 15.81 61.05 15.81 61.05 16.29 60.32 16.29 60.32 18.64 59.82 18.64"/><polygon class="cls-1" points="61.37 18.64 61.37 15.81 63.19 15.81 63.19 16.29 61.86 16.29 61.86 16.92 63.09 16.92 63.09 17.39 61.86 17.39 61.86 18.16 63.23 18.16 63.23 18.64 61.37 18.64"/><path class="cls-1" d="M63.66,18.64V15.81h1a1.57,1.57,0,0,1,.57.08.58.58,0,0,1,.29.27.93.93,0,0,1,.1.45.81.81,0,0,1-.16.52.71.71,0,0,1-.48.26,1.51,1.51,0,0,1,.26.24,2.8,2.8,0,0,1,.28.46l.3.55h-.59L64.91,18a2.75,2.75,0,0,0-.26-.41.4.4,0,0,0-.15-.12.73.73,0,0,0-.25,0h-.1v1.18ZM64.15,17h.37A1.78,1.78,0,0,0,65,17a.33.33,0,0,0,.14-.12.38.38,0,0,0,.05-.22.41.41,0,0,0-.06-.23.33.33,0,0,0-.19-.11h-.75Z"/><path class="cls-1" d="M68.35,18.64h-.54L67.59,18h-1l-.2.64h-.53l1-2.83h.52Zm-.92-1.12-.33-1.05-.34,1.05Z"/><rect class="cls-1" x="69.42" y="15.81" width="0.5" height="2.83"/><polygon class="cls-1" points="70.39 18.64 70.39 15.81 70.88 15.81 71.88 17.7 71.88 15.81 72.34 15.81 72.34 18.64 71.84 18.64 70.85 16.8 70.85 18.64 70.39 18.64"/><path class="cls-1" d="M72.86,15.81h.91a1.41,1.41,0,0,1,.47.06.79.79,0,0,1,.37.26,1.24,1.24,0,0,1,.23.46,2.13,2.13,0,0,1,.08.66,2.18,2.18,0,0,1-.07.61,1.27,1.27,0,0,1-.26.49.86.86,0,0,1-.35.23,1.33,1.33,0,0,1-.44.06h-.94Zm.5.48v1.87h.37a1.15,1.15,0,0,0,.3,0,.56.56,0,0,0,.2-.12.62.62,0,0,0,.13-.27,2.34,2.34,0,0,0,0-.52,2,2,0,0,0,0-.5.67.67,0,0,0-.14-.28.48.48,0,0,0-.23-.13,1.76,1.76,0,0,0-.41,0Z"/><path class="cls-1" d="M75.34,15.81h.5v1.54a2.52,2.52,0,0,0,0,.47.46.46,0,0,0,.15.27.43.43,0,0,0,.32.11.42.42,0,0,0,.32-.1.38.38,0,0,0,.13-.24,3,3,0,0,0,0-.48V15.81h.5V17.3a4.05,4.05,0,0,1,0,.72.86.86,0,0,1-.15.35.66.66,0,0,1-.29.23,1.06,1.06,0,0,1-.47.09,1.09,1.09,0,0,1-.53-.1.7.7,0,0,1-.29-.24.79.79,0,0,1-.14-.31,4.13,4.13,0,0,1,0-.72Z"/><path class="cls-1" d="M77.7,17.72l.48,0a.74.74,0,0,0,.18.41.49.49,0,0,0,.36.13.52.52,0,0,0,.36-.12.37.37,0,0,0,.12-.27.31.31,0,0,0,0-.17.41.41,0,0,0-.18-.12,3.07,3.07,0,0,0-.4-.13,1.27,1.27,0,0,1-.56-.28.78.78,0,0,1-.23-.57.83.83,0,0,1,.11-.4.79.79,0,0,1,.31-.29,1.14,1.14,0,0,1,.48-.09.94.94,0,0,1,.7.23.87.87,0,0,1,.24.62l-.49,0a.53.53,0,0,0-.14-.32.46.46,0,0,0-.31-.09.49.49,0,0,0-.34.1.22.22,0,0,0-.08.18.23.23,0,0,0,.07.17,1.31,1.31,0,0,0,.46.19,1.9,1.9,0,0,1,.53.2.71.71,0,0,1,.28.29,1.06,1.06,0,0,1,0,.9.78.78,0,0,1-.33.32,1.27,1.27,0,0,1-.54.1.93.93,0,0,1-.71-.25,1.09,1.09,0,0,1-.3-.72"/><polygon class="cls-1" points="80.66 18.64 80.66 16.29 79.93 16.29 79.93 15.81 81.89 15.81 81.89 16.29 81.16 16.29 81.16 18.64 80.66 18.64"/><path class="cls-1" d="M82.21,18.64V15.81h1a1.53,1.53,0,0,1,.57.08.58.58,0,0,1,.29.27.94.94,0,0,1,.11.45.81.81,0,0,1-.17.52.69.69,0,0,1-.48.26,1.21,1.21,0,0,1,.26.24,3.52,3.52,0,0,1,.29.46l.3.55h-.6L83.46,18a2.75,2.75,0,0,0-.26-.41.29.29,0,0,0-.15-.12.73.73,0,0,0-.25,0h-.1v1.18ZM82.7,17h.37a1.94,1.94,0,0,0,.45,0,.41.41,0,0,0,.14-.12.48.48,0,0,0,0-.22.42.42,0,0,0-.07-.23.33.33,0,0,0-.19-.11H82.7Z"/><rect class="cls-1" x="84.67" y="15.81" width="0.5" height="2.83"/><path class="cls-1" d="M87.85,18.64h-.54L87.1,18h-1l-.21.64h-.52l1-2.83h.53Zm-.91-1.12-.34-1.05-.33,1.05Z"/><polygon class="cls-1" points="88.13 18.64 88.13 15.84 88.62 15.84 88.62 18.16 89.86 18.16 89.86 18.64 88.13 18.64"/><path class="cls-1" d="M91,17.72l.48,0a.74.74,0,0,0,.18.41.58.58,0,0,0,.72,0,.37.37,0,0,0,.12-.27.31.31,0,0,0,0-.17.41.41,0,0,0-.18-.12,3.07,3.07,0,0,0-.4-.13,1.27,1.27,0,0,1-.56-.28.77.77,0,0,1-.22-.57.82.82,0,0,1,.1-.4.73.73,0,0,1,.31-.29,1.14,1.14,0,0,1,.48-.09.94.94,0,0,1,.7.23.87.87,0,0,1,.24.62l-.49,0a.53.53,0,0,0-.14-.32.46.46,0,0,0-.31-.09.49.49,0,0,0-.34.1.22.22,0,0,0-.08.18.23.23,0,0,0,.07.17,1.41,1.41,0,0,0,.46.19,1.9,1.9,0,0,1,.53.2.71.71,0,0,1,.28.29,1,1,0,0,1,.09.45.88.88,0,0,1-.11.45.75.75,0,0,1-.34.32,1.19,1.19,0,0,1-.53.1,1,1,0,0,1-.72-.25,1.14,1.14,0,0,1-.29-.72"/><rect class="cls-1" x="93.39" y="18.1" width="0.47" height="0.54"/><path class="cls-1" d="M97.38,18.64h-.53L96.63,18h-1l-.2.64h-.53l1-2.83h.52Zm-.91-1.12-.34-1.05-.33,1.05Z"/><rect class="cls-1" x="97.64" y="18.1" width="0.47" height="0.54"/><polygon class="cls-1" points="30.62 14.26 26.55 14.26 32.44 3.89 36.52 3.89 30.62 14.26"/><polygon class="cls-1" points="51.62 14.26 47.54 14.26 53.44 3.89 57.51 3.89 51.62 14.26"/><path class="cls-1" d="M82.29,11.4c-.89,1.41-2.36,2.86-5.6,2.86H67L68.41,12h8.65c1.86,0,2.79-1.76.77-1.76H73.06c-2.71,0-3.35-1.6-2.47-3.11s1.72-3.21,5.22-3.21H86.05L84.63,6.16H76.08c-1.71,0-2.5,1.78-1.12,1.77l4.4,0c2.88,0,3.92,1.94,2.93,3.51"/><polygon class="cls-1" points="69.72 6.19 66.12 6.19 61.53 14.26 57.62 14.26 62.21 6.19 58 6.19 59.31 3.89 71.03 3.89 69.72 6.19"/><path class="cls-1" d="M50.1,6.2H41.21l-.92,1.66h8.18l-1.38,2.42H38.91l-2.26,4h-4l5-8.73c.9-1.52,2.14-1.64,4.73-1.64h9.11Z"/><path class="cls-1" d="M95.33,14.26H91.41l1.9-3.3H89.17l1.2-2.41h4.36L95.61,7c.28-.51.06-.78-.39-.78H91.07c-.34,0-.61.11-.89.61L86,14.26H82.11L86.7,6.14a3.91,3.91,0,0,1,3.78-2.25h7.09c2.2,0,2.85,1.53,2.18,2.7Z"/><polygon class="cls-1" points="24.42 4.88 28.78 3.16 26.07 1.74 23.65 2.96 24.42 4.88"/><polygon class="cls-1" points="23.97 5.05 23.2 3.11 14.69 4.04 14.69 6.26 23.97 5.05"/><path class="cls-1" d="M16.37,16.16,28.9,3.62,24.46,5.38C24,6,19.07,12.6,16.37,16.16Z"/><path class="cls-1" d="M14.69,17.56c1.5-1.93,6.59-8.75,9-12l-9,1.18Z"/><polygon class="cls-1" points="25.5 1.49 23.38 0.73 14.45 0 14.45 0 14.45 0 14.45 0 14.45 0 5.52 0.73 3.4 1.49 5.65 2.63 14.45 3.58 14.45 3.58 14.45 3.58 14.45 3.58 14.45 3.58 23.25 2.63 25.5 1.49"/><polygon class="cls-1" points="4.48 4.88 0.12 3.16 2.83 1.74 5.25 2.96 4.48 4.88"/><polygon class="cls-1" points="4.93 5.05 5.71 3.11 14.21 4.04 14.21 6.26 4.93 5.05"/><path class="cls-1" d="M12.54,16.16,0,3.62,4.45,5.38C4.92,6,9.83,12.6,12.54,16.16Z"/><path class="cls-1" d="M14.21,17.56c-1.5-1.93-6.58-8.75-9-12l9,1.18Z"/><path class="cls-1" d="M98.18,20.63H15.91a1.54,1.54,0,0,1-1.55-1.55h.19a1.37,1.37,0,0,0,1.36,1.37H98.18Z"/></g></g></svg>